<svg xmlns="http://www.w3.org/2000/svg" viewBox="0 0 900 1200" width="900" height="1200" role="img" aria-label="LOVE SPELL">
<defs>
  <linearGradient id="bgglovespellmist" x1="0" y1="0" x2="0.3" y2="1">
    <stop offset="0%" stop-color="#FFFDFB"/><stop offset="55%" stop-color="#FBD5CB"/><stop offset="100%" stop-color="#D4425A22"/>
  </linearGradient>
  <radialGradient id="flashlovespellmist" cx="50%" cy="28%" r="62%">
    <stop offset="0%" stop-color="#ffffff" stop-opacity=".85"/><stop offset="60%" stop-color="#ffffff" stop-opacity=".12"/><stop offset="100%" stop-color="#ffffff" stop-opacity="0"/>
  </radialGradient>
  <linearGradient id="glasslovespellmist" x1="0" y1="0" x2="1" y2="0">
    <stop offset="0%" stop-color="#ffffff" stop-opacity=".95"/><stop offset="18%" stop-color="#F7B8AA"/><stop offset="52%" stop-color="#D4425A"/><stop offset="78%" stop-color="#F7B8AA"/><stop offset="100%" stop-color="#ffffff" stop-opacity=".8"/>
  </linearGradient>
  <linearGradient id="caplovespellmist" x1="0" y1="0" x2="1" y2="0">
    <stop offset="0%" stop-color="#F7F2EE"/><stop offset="35%" stop-color="#D4425A"/><stop offset="70%" stop-color="#7B2233"/><stop offset="100%" stop-color="#EFE6DF"/>
  </linearGradient>
  <filter id="grainlovespellmist"><feTurbulence type="fractalNoise" baseFrequency="0.9" numOctaves="3" stitchTiles="stitch"/><feColorMatrix type="saturate" values="0"/><feComponentTransfer><feFuncA type="linear" slope="0.13"/></feComponentTransfer></filter>
  <filter id="softlovespellmist" x="-40%" y="-40%" width="180%" height="180%"><feGaussianBlur stdDeviation="26"/></filter></defs>
<rect width="900" height="1200" fill="url(#bgglovespellmist)"/>
<ellipse cx="450" cy="330" rx="330" ry="330" fill="url(#flashlovespellmist)"/>
<g opacity=".28" fill="none" stroke="#D4425A" stroke-width="1.5">
  <ellipse cx="450" cy="1010" rx="330" ry="52"/><ellipse cx="450" cy="1010" rx="250" ry="38"/>
</g>
<ellipse cx="470" cy="1022" rx="212.5" ry="34" fill="#7B2233" opacity=".22" filter="url(#softlovespellmist)"/>
<g>
  
  <rect x="420" y="352" width="60" height="120" rx="8" fill="#F7B8AA" opacity=".55"/>
  <rect x="404" y="310" width="92" height="58" rx="14" fill="url(#caplovespellmist)"/>
  <rect x="428" y="294" width="44" height="22" rx="7" fill="#7B2233" opacity=".85"/>
  <rect x="325" y="470" width="250" height="560" rx="44" fill="url(#glasslovespellmist)"/>
  <rect x="339" y="486" width="26" height="514" rx="13" fill="#fff" opacity=".55"/>
  <rect x="529" y="510" width="14" height="450" rx="7" fill="#fff" opacity=".3"/>
  <rect x="351" y="620" width="198" height="250" rx="12" fill="#FFFBF7" opacity=".93"/>
  <text x="450" y="675" text-anchor="middle" font-family="Georgia, 'Times New Roman', serif" font-size="30" letter-spacing="2" fill="#7B2233">LOVE</text>
  <text x="450" y="715" text-anchor="middle" font-family="Georgia, 'Times New Roman', serif" font-size="30" letter-spacing="2" fill="#7B2233">SPELL</text>
  <line x1="395" y1="742" x2="505" y2="742" stroke="#D4425A" stroke-width="1.2" opacity=".6"/>
  <text x="450" y="776" text-anchor="middle" font-family="Helvetica, Arial, sans-serif" font-size="13" letter-spacing="3" fill="#D4425A">BRUME PARFUMÉE</text>
  <text x="450" y="806" text-anchor="middle" font-family="Helvetica, Arial, sans-serif" font-size="11" letter-spacing="2.5" fill="#7B2233" opacity=".65">PÊCHE · CERISE · FLORAL</text>
</g>
<rect width="900" height="1200" filter="url(#grainlovespellmist)" opacity=".5" style="mix-blend-mode:multiply"/>
</svg>