<svg xmlns="http://www.w3.org/2000/svg" viewBox="0 0 800 1000" width="800" height="1000">
<defs>
  <linearGradient id="bggmvelvetpetals" x1="0" y1="0" x2="0.3" y2="1">
    <stop offset="0%" stop-color="#FFFDFB"/><stop offset="55%" stop-color="#EFDCEC"/><stop offset="100%" stop-color="#A2678F22"/>
  </linearGradient>
  <radialGradient id="flashmvelvetpetals" cx="50%" cy="28%" r="62%">
    <stop offset="0%" stop-color="#ffffff" stop-opacity=".85"/><stop offset="60%" stop-color="#ffffff" stop-opacity=".12"/><stop offset="100%" stop-color="#ffffff" stop-opacity="0"/>
  </radialGradient>
  <linearGradient id="glassmvelvetpetals" x1="0" y1="0" x2="1" y2="0">
    <stop offset="0%" stop-color="#ffffff" stop-opacity=".95"/><stop offset="18%" stop-color="#E3C6DE"/><stop offset="52%" stop-color="#A2678F"/><stop offset="78%" stop-color="#E3C6DE"/><stop offset="100%" stop-color="#ffffff" stop-opacity=".8"/>
  </linearGradient>
  <linearGradient id="capmvelvetpetals" x1="0" y1="0" x2="1" y2="0">
    <stop offset="0%" stop-color="#F7F2EE"/><stop offset="35%" stop-color="#A2678F"/><stop offset="70%" stop-color="#5E3552"/><stop offset="100%" stop-color="#EFE6DF"/>
  </linearGradient>
  <filter id="grainmvelvetpetals"><feTurbulence type="fractalNoise" baseFrequency="0.9" numOctaves="3" stitchTiles="stitch"/><feColorMatrix type="saturate" values="0"/><feComponentTransfer><feFuncA type="linear" slope="0.13"/></feComponentTransfer></filter>
  <filter id="softmvelvetpetals" x="-40%" y="-40%" width="180%" height="180%"><feGaussianBlur stdDeviation="26"/></filter></defs>
<rect width="800" height="1000" fill="url(#bggmvelvetpetals)"/>
<ellipse cx="400" cy="300" rx="380" ry="340" fill="url(#flashmvelvetpetals)"/>
<g opacity=".5">
  <circle cx="230" cy="740" r="150" fill="#A2678F" opacity=".22" filter="url(#softmvelvetpetals)"/>
  <circle cx="600" cy="420" r="190" fill="#E3C6DE" opacity=".5" filter="url(#softmvelvetpetals)"/>
</g>
<g transform="translate(400 520)" opacity=".9">
  <ellipse cx="0" cy="-120" rx="58" ry="140" fill="#A2678F" opacity=".18" transform="rotate(0)"/><ellipse cx="0" cy="-120" rx="58" ry="140" fill="#A2678F" opacity=".18" transform="rotate(45)"/><ellipse cx="0" cy="-120" rx="58" ry="140" fill="#A2678F" opacity=".18" transform="rotate(90)"/><ellipse cx="0" cy="-120" rx="58" ry="140" fill="#A2678F" opacity=".18" transform="rotate(135)"/><ellipse cx="0" cy="-120" rx="58" ry="140" fill="#A2678F" opacity=".18" transform="rotate(180)"/><ellipse cx="0" cy="-120" rx="58" ry="140" fill="#A2678F" opacity=".18" transform="rotate(225)"/><ellipse cx="0" cy="-120" rx="58" ry="140" fill="#A2678F" opacity=".18" transform="rotate(270)"/><ellipse cx="0" cy="-120" rx="58" ry="140" fill="#A2678F" opacity=".18" transform="rotate(315)"/>
  <circle r="46" fill="#E3C6DE"/><circle r="22" fill="#A2678F" opacity=".55"/>
</g>
<rect x="60" y="60" width="680" height="880" fill="none" stroke="#FFFDFB" stroke-width="2" opacity=".7"/>
<rect width="800" height="1000" filter="url(#grainmvelvetpetals)" opacity=".55" style="mix-blend-mode:multiply"/>
</svg>